<svg xmlns="http://www.w3.org/2000/svg" width="70" height="70" viewBox="0 0 70 70" style="width: 100%; height: 100%;"><desc>Made with illustrio</desc>
  
<g class="content"><path class="secondary-fill" d="M55 40h5c2.8 0 5-2.2 5-5s-2.2-5-5-5h-7.5c-2.8 0-5-2.2-5-5s2.2-5 5-5 5-2.2 5-5-2.2-5-5-5h-35c-2.8 0-5 2.2-5 5s2.2 5 5 5H20c2.8 0 5 2.2 5 5s-2.2 5-5 5H10c-2.8 0-5 2.2-5 5s2.2 5 5 5h15c2.8 0 5 2.2 5 5s-2.2 5-5 5h-7.5c-2.8 0-5 2.2-5 5s2.2 5 5 5h40c2.8 0 5-2.2 5-5s-2.2-5-5-5H55c-2.8 0-5-2.2-5-5s2.2-5 5-5z" style="fill-opacity: 0.3;"></path><g class="white-layer"><g fill="#ffffff" fill-rule="evenodd" stroke="none">
    
    
  </g><g fill="#ffffff" transform="translate(20 23)" stroke="none">
      <path d="M20.3 5.7C20.2 5.7 18 5.7 16.6 7.2 15.8 8.1 15.4 9.4 15.6 11 15.6 11.3 15.9 11.6 16.3 11.6 16.3 11.6 17 11.7 17 10.9 16.9 9.7 17.1 8.8 17.7 8.1 18.7 7 20.4 7 20.4 7L20.6 7C21 7 21 6.7 21 6.3 21 6 20.7 5.7 20.3 5.7L20.3 5.7zM.3 24L4 24 4 16 .5 16C.1 16 0 16.1 0 16.4L0 23.3C0 23.7 0 24 .3 24L.3 24z" fill="#ffffff" stroke="none"></path>
      <path d="M25.8 15.6C26.8 14.4 27.5 13 27.7 11.4 27.9 9.4 27.2 7.5 25.9 5.9 25 4.8 24 4 22 3.5L22 .7C22 .3 22 0 21.7 0L16.4 0C16 0 16 .3 16 .7L16 1.4 16 4.9 15.8 5.1C15.2 5.6 14.5 6.1 14 7.1L10.4 7.1C10 7.1 10 7.2 10 7.6L10 8 10 10.7 10 12 10 24 11 24 14 24 14 16C14 15.6 14.6 15.3 15 15.3 15.4 15.3 16 15.6 16 16L16 24 16.3 24 21 24 21.7 24C22.1 24 22 23.7 22 23.3L22 17.7C23 17.4 23.9 17 24.7 16.5L27.1 19.2C27.2 19.4 27.5 19.4 27.7 19.4 27.9 19.4 28 19.3 28.2 19.2 28.5 19 28.5 18.5 28.3 18.3L25.8 15.6 25.8 15.6zM24.1 15.4C23.4 16 22.5 16.4 21.5 16.6L21.5 16.6C19.8 16.9 18.1 16.6 16.7 15.6L16.7 15.6C16.2 15.2 15.8 14.9 15.5 14.5 13.9 12.5 13.7 9.9 14.9 7.7 15.3 7 15.8 6.4 16.4 5.9 16.4 5.9 18.6 3.9 21.5 4.5 22.9 4.8 24.1 5.6 25 6.7 26 8 26.5 9.6 26.3 11.2 26.2 12.9 25.4 14.4 24.1 15.4L24.1 15.4zM9 24L9 12 5.5 12C5.1 12 5 12.1 5 12.5L5 13.3 5 16 5 24 5.7 24 9 24 9 24z" fill="#ffffff" stroke="none"></path>
    </g></g><g class="shifted" transform="matrix(1,0,0,1,1.5,0)" style="fill-opacity: 0.3;"><g fill="none" fill-rule="evenodd" stroke="none" class="main-fill">
    
    
  </g><g fill="none" transform="translate(20 23)" stroke="none" class="main-fill">
      <path d="M20.3 5.7C20.2 5.7 18 5.7 16.6 7.2 15.8 8.1 15.4 9.4 15.6 11 15.6 11.3 15.9 11.6 16.3 11.6 16.3 11.6 17 11.7 17 10.9 16.9 9.7 17.1 8.8 17.7 8.1 18.7 7 20.4 7 20.4 7L20.6 7C21 7 21 6.7 21 6.3 21 6 20.7 5.7 20.3 5.7L20.3 5.7zM.3 24L4 24 4 16 .5 16C.1 16 0 16.1 0 16.4L0 23.3C0 23.7 0 24 .3 24L.3 24z" fill="none" stroke="none" class="main-fill"></path>
      <path d="M25.8 15.6C26.8 14.4 27.5 13 27.7 11.4 27.9 9.4 27.2 7.5 25.9 5.9 25 4.8 24 4 22 3.5L22 .7C22 .3 22 0 21.7 0L16.4 0C16 0 16 .3 16 .7L16 1.4 16 4.9 15.8 5.1C15.2 5.6 14.5 6.1 14 7.1L10.4 7.1C10 7.1 10 7.2 10 7.6L10 8 10 10.7 10 12 10 24 11 24 14 24 14 16C14 15.6 14.6 15.3 15 15.3 15.4 15.3 16 15.6 16 16L16 24 16.3 24 21 24 21.7 24C22.1 24 22 23.7 22 23.3L22 17.7C23 17.4 23.9 17 24.7 16.5L27.1 19.2C27.2 19.4 27.5 19.4 27.7 19.4 27.9 19.4 28 19.3 28.2 19.2 28.5 19 28.5 18.5 28.3 18.3L25.8 15.6 25.8 15.6zM24.1 15.4C23.4 16 22.5 16.4 21.5 16.6L21.5 16.6C19.8 16.9 18.1 16.6 16.7 15.6L16.7 15.6C16.2 15.2 15.8 14.9 15.5 14.5 13.9 12.5 13.7 9.9 14.9 7.7 15.3 7 15.8 6.4 16.4 5.9 16.4 5.9 18.6 3.9 21.5 4.5 22.9 4.8 24.1 5.6 25 6.7 26 8 26.5 9.6 26.3 11.2 26.2 12.9 25.4 14.4 24.1 15.4L24.1 15.4zM9 24L9 12 5.5 12C5.1 12 5 12.1 5 12.5L5 13.3 5 16 5 24 5.7 24 9 24 9 24z" fill="none" stroke="none" class="main-fill"></path>
    </g></g><g class="base"><g fill="none" fill-rule="evenodd" stroke="none" class="main-stroke--darken">
    
    
  </g><g fill="none" transform="translate(20 23)" stroke="none" class="main-stroke--darken">
      <path d="M20.3 5.7C20.2 5.7 18 5.7 16.6 7.2 15.8 8.1 15.4 9.4 15.6 11 15.6 11.3 15.9 11.6 16.3 11.6 16.3 11.6 17 11.7 17 10.9 16.9 9.7 17.1 8.8 17.7 8.1 18.7 7 20.4 7 20.4 7L20.6 7C21 7 21 6.7 21 6.3 21 6 20.7 5.7 20.3 5.7L20.3 5.7zM.3 24L4 24 4 16 .5 16C.1 16 0 16.1 0 16.4L0 23.3C0 23.7 0 24 .3 24L.3 24z" fill="none" stroke="none" class="main-stroke--darken"></path>
      <path d="M25.8 15.6C26.8 14.4 27.5 13 27.7 11.4 27.9 9.4 27.2 7.5 25.9 5.9 25 4.8 24 4 22 3.5L22 .7C22 .3 22 0 21.7 0L16.4 0C16 0 16 .3 16 .7L16 1.4 16 4.9 15.8 5.1C15.2 5.6 14.5 6.1 14 7.1L10.4 7.1C10 7.1 10 7.2 10 7.6L10 8 10 10.7 10 12 10 24 11 24 14 24 14 16C14 15.6 14.6 15.3 15 15.3 15.4 15.3 16 15.6 16 16L16 24 16.3 24 21 24 21.7 24C22.1 24 22 23.7 22 23.3L22 17.7C23 17.4 23.9 17 24.7 16.5L27.1 19.2C27.2 19.4 27.5 19.4 27.7 19.4 27.9 19.4 28 19.3 28.2 19.2 28.5 19 28.5 18.5 28.3 18.3L25.8 15.6 25.8 15.6zM24.1 15.4C23.4 16 22.5 16.4 21.5 16.6L21.5 16.6C19.8 16.9 18.1 16.6 16.7 15.6L16.7 15.6C16.2 15.2 15.8 14.9 15.5 14.5 13.9 12.5 13.7 9.9 14.9 7.7 15.3 7 15.8 6.4 16.4 5.9 16.4 5.9 18.6 3.9 21.5 4.5 22.9 4.8 24.1 5.6 25 6.7 26 8 26.5 9.6 26.3 11.2 26.2 12.9 25.4 14.4 24.1 15.4L24.1 15.4zM9 24L9 12 5.5 12C5.1 12 5 12.1 5 12.5L5 13.3 5 16 5 24 5.7 24 9 24 9 24z" fill="none" stroke="none" class="main-stroke--darken"></path>
    </g></g></g><style>
          .main-fill {fill: #374549;}
          .main-stroke {stroke: #374549;}
          .secondary-fill {fill: #212529;}
          .secondary-stroke {stroke: #212529;}

          .main-fill--darken {fill: #161c1d;}
          .main-stroke--darken {stroke: #161c1d;}
          .secondary-fill--darken {fill: #000000;}
          .secondary-stroke--darken {stroke: #000000;}

          .main-fill--darkener {fill: #000000;}
          .main-stroke--darkener {stroke: #000000;}
          .secondary-fill--darkener {fill: #000000;}
          .secondary-stroke--darkener {stroke: #000000;}
        </style></svg>