<svg xmlns="http://www.w3.org/2000/svg" width="70" height="70" viewBox="0 0 70 70" style="width: 100%; height: 100%;"><desc>Made with illustrio</desc>
  
<g class="content"><path class="secondary-fill" d="M55 40h5c2.8 0 5-2.2 5-5s-2.2-5-5-5h-7.5c-2.8 0-5-2.2-5-5s2.2-5 5-5 5-2.2 5-5-2.2-5-5-5h-35c-2.8 0-5 2.2-5 5s2.2 5 5 5H20c2.8 0 5 2.2 5 5s-2.2 5-5 5H10c-2.8 0-5 2.2-5 5s2.2 5 5 5h15c2.8 0 5 2.2 5 5s-2.2 5-5 5h-7.5c-2.8 0-5 2.2-5 5s2.2 5 5 5h40c2.8 0 5-2.2 5-5s-2.2-5-5-5H55c-2.8 0-5-2.2-5-5s2.2-5 5-5z" style="fill-opacity: 0.3;"></path><g class="white-layer"><g fill="#ffffff" fill-rule="evenodd" stroke="none">
    
    
  </g><g fill="#ffffff" transform="translate(17.818 19.09)" stroke="none">
      <circle cx="28.636" cy="15.909" r=".636" fill="#ffffff" stroke="none"></circle>
      <circle cx="28.636" cy="27.364" r=".636" fill="#ffffff" stroke="none"></circle>
      <path d="M33.7272727,8.90909091 C34.0791818,8.90909091 34.3636364,8.624 34.3636364,8.27272727 L34.3636364,0.636363636 C34.3636364,0.285090909 34.0791818,0 33.7272727,0 L0.636363636,0 C0.285090909,0 0,0.285090909 0,0.636363636 L0,8.27272727 C0,8.624 0.285090909,8.90909091 0.636363636,8.90909091 L16.5454545,8.90909091 L16.5454545,11.4545455 L0.636363636,11.4545455 C0.285090909,11.4545455 0,11.7396364 0,12.0909091 L0,19.7272727 C0,20.0791818 0.285090909,20.3636364 0.636363636,20.3636364 L16.5454545,20.3636364 L16.5454545,22.9090909 L0.636363636,22.9090909 C0.285090909,22.9090909 0,23.1935455 0,23.5454545 L0,31.1818182 C0,31.5337273 0.285090909,31.8181818 0.636363636,31.8181818 L33.7272727,31.8181818 C34.0791818,31.8181818 34.3636364,31.5337273 34.3636364,31.1818182 L34.3636364,23.5454545 C34.3636364,23.1935455 34.0791818,22.9090909 33.7272727,22.9090909 L17.8181818,22.9090909 L17.8181818,20.3636364 L33.7272727,20.3636364 C34.0791818,20.3636364 34.3636364,20.0791818 34.3636364,19.7272727 L34.3636364,12.0909091 C34.3636364,11.7396364 34.0791818,11.4545455 33.7272727,11.4545455 L17.8181818,11.4545455 L17.8181818,8.90909091 L33.7272727,8.90909091 L33.7272727,8.90909091 Z M22.2727273,29.2727273 L3.18181818,29.2727273 C2.83054545,29.2727273 2.54545455,28.9882727 2.54545455,28.6363636 C2.54545455,28.2844545 2.83054545,28 3.18181818,28 L22.2727273,28 C22.6246364,28 22.9090909,28.2844545 22.9090909,28.6363636 C22.9090909,28.9882727 22.6246364,29.2727273 22.2727273,29.2727273 L22.2727273,29.2727273 Z M28.6363636,25.4545455 C29.6889091,25.4545455 30.5454545,26.3110909 30.5454545,27.3636364 C30.5454545,28.4161818 29.6889091,29.2727273 28.6363636,29.2727273 C27.5838182,29.2727273 26.7272727,28.4161818 26.7272727,27.3636364 C26.7272727,26.3110909 27.5838182,25.4545455 28.6363636,25.4545455 L28.6363636,25.4545455 Z M22.9090909,26.0909091 C22.9090909,26.4428182 22.6246364,26.7272727 22.2727273,26.7272727 L3.18181818,26.7272727 C2.83054545,26.7272727 2.54545455,26.4428182 2.54545455,26.0909091 C2.54545455,25.739 2.83054545,25.4545455 3.18181818,25.4545455 L22.2727273,25.4545455 C22.6246364,25.4545455 22.9090909,25.739 22.9090909,26.0909091 L22.9090909,26.0909091 Z M22.2727273,17.8181818 L3.18181818,17.8181818 C2.83054545,17.8181818 2.54545455,17.5337273 2.54545455,17.1818182 C2.54545455,16.8299091 2.83054545,16.5454545 3.18181818,16.5454545 L22.2727273,16.5454545 C22.6246364,16.5454545 22.9090909,16.8299091 22.9090909,17.1818182 C22.9090909,17.5337273 22.6246364,17.8181818 22.2727273,17.8181818 L22.2727273,17.8181818 Z M28.6363636,14 C29.6889091,14 30.5454545,14.8565455 30.5454545,15.9090909 C30.5454545,16.9616364 29.6889091,17.8181818 28.6363636,17.8181818 C27.5838182,17.8181818 26.7272727,16.9616364 26.7272727,15.9090909 C26.7272727,14.8565455 27.5838182,14 28.6363636,14 L28.6363636,14 Z M22.9090909,14.6363636 C22.9090909,14.9876364 22.6246364,15.2727273 22.2727273,15.2727273 L3.18181818,15.2727273 C2.83054545,15.2727273 2.54545455,14.9876364 2.54545455,14.6363636 C2.54545455,14.2850909 2.83054545,14 3.18181818,14 L22.2727273,14 C22.6246364,14 22.9090909,14.2850909 22.9090909,14.6363636 L22.9090909,14.6363636 Z M28.6363636,2.54545455 C29.6889091,2.54545455 30.5454545,3.402 30.5454545,4.45454545 C30.5454545,5.50709091 29.6889091,6.36363636 28.6363636,6.36363636 C27.5838182,6.36363636 26.7272727,5.50709091 26.7272727,4.45454545 C26.7272727,3.402 27.5838182,2.54545455 28.6363636,2.54545455 L28.6363636,2.54545455 Z M3.18181818,2.54545455 L22.2727273,2.54545455 C22.6246364,2.54545455 22.9090909,2.83054545 22.9090909,3.18181818 C22.9090909,3.53309091 22.6246364,3.81818182 22.2727273,3.81818182 L3.18181818,3.81818182 C2.83054545,3.81818182 2.54545455,3.53309091 2.54545455,3.18181818 C2.54545455,2.83054545 2.83054545,2.54545455 3.18181818,2.54545455 L3.18181818,2.54545455 Z M2.54545455,5.72727273 C2.54545455,5.376 2.83054545,5.09090909 3.18181818,5.09090909 L22.2727273,5.09090909 C22.6246364,5.09090909 22.9090909,5.376 22.9090909,5.72727273 C22.9090909,6.07854545 22.6246364,6.36363636 22.2727273,6.36363636 L3.18181818,6.36363636 C2.83054545,6.36363636 2.54545455,6.07854545 2.54545455,5.72727273 L2.54545455,5.72727273 Z" fill="#ffffff" stroke="none"></path>
      <circle cx="28.636" cy="4.455" r=".636" fill="#ffffff" stroke="none"></circle>
    </g></g><g class="shifted" transform="matrix(1,0,0,1,1.5,0)" style="fill-opacity: 0.3;"><g fill="none" fill-rule="evenodd" stroke="none" class="main-fill">
    
    
  </g><g fill="none" transform="translate(17.818 19.09)" stroke="none" class="main-fill">
      <circle cx="28.636" cy="15.909" r=".636" fill="none" stroke="none" class="main-fill"></circle>
      <circle cx="28.636" cy="27.364" r=".636" fill="none" stroke="none" class="main-fill"></circle>
      <path d="M33.7272727,8.90909091 C34.0791818,8.90909091 34.3636364,8.624 34.3636364,8.27272727 L34.3636364,0.636363636 C34.3636364,0.285090909 34.0791818,0 33.7272727,0 L0.636363636,0 C0.285090909,0 0,0.285090909 0,0.636363636 L0,8.27272727 C0,8.624 0.285090909,8.90909091 0.636363636,8.90909091 L16.5454545,8.90909091 L16.5454545,11.4545455 L0.636363636,11.4545455 C0.285090909,11.4545455 0,11.7396364 0,12.0909091 L0,19.7272727 C0,20.0791818 0.285090909,20.3636364 0.636363636,20.3636364 L16.5454545,20.3636364 L16.5454545,22.9090909 L0.636363636,22.9090909 C0.285090909,22.9090909 0,23.1935455 0,23.5454545 L0,31.1818182 C0,31.5337273 0.285090909,31.8181818 0.636363636,31.8181818 L33.7272727,31.8181818 C34.0791818,31.8181818 34.3636364,31.5337273 34.3636364,31.1818182 L34.3636364,23.5454545 C34.3636364,23.1935455 34.0791818,22.9090909 33.7272727,22.9090909 L17.8181818,22.9090909 L17.8181818,20.3636364 L33.7272727,20.3636364 C34.0791818,20.3636364 34.3636364,20.0791818 34.3636364,19.7272727 L34.3636364,12.0909091 C34.3636364,11.7396364 34.0791818,11.4545455 33.7272727,11.4545455 L17.8181818,11.4545455 L17.8181818,8.90909091 L33.7272727,8.90909091 L33.7272727,8.90909091 Z M22.2727273,29.2727273 L3.18181818,29.2727273 C2.83054545,29.2727273 2.54545455,28.9882727 2.54545455,28.6363636 C2.54545455,28.2844545 2.83054545,28 3.18181818,28 L22.2727273,28 C22.6246364,28 22.9090909,28.2844545 22.9090909,28.6363636 C22.9090909,28.9882727 22.6246364,29.2727273 22.2727273,29.2727273 L22.2727273,29.2727273 Z M28.6363636,25.4545455 C29.6889091,25.4545455 30.5454545,26.3110909 30.5454545,27.3636364 C30.5454545,28.4161818 29.6889091,29.2727273 28.6363636,29.2727273 C27.5838182,29.2727273 26.7272727,28.4161818 26.7272727,27.3636364 C26.7272727,26.3110909 27.5838182,25.4545455 28.6363636,25.4545455 L28.6363636,25.4545455 Z M22.9090909,26.0909091 C22.9090909,26.4428182 22.6246364,26.7272727 22.2727273,26.7272727 L3.18181818,26.7272727 C2.83054545,26.7272727 2.54545455,26.4428182 2.54545455,26.0909091 C2.54545455,25.739 2.83054545,25.4545455 3.18181818,25.4545455 L22.2727273,25.4545455 C22.6246364,25.4545455 22.9090909,25.739 22.9090909,26.0909091 L22.9090909,26.0909091 Z M22.2727273,17.8181818 L3.18181818,17.8181818 C2.83054545,17.8181818 2.54545455,17.5337273 2.54545455,17.1818182 C2.54545455,16.8299091 2.83054545,16.5454545 3.18181818,16.5454545 L22.2727273,16.5454545 C22.6246364,16.5454545 22.9090909,16.8299091 22.9090909,17.1818182 C22.9090909,17.5337273 22.6246364,17.8181818 22.2727273,17.8181818 L22.2727273,17.8181818 Z M28.6363636,14 C29.6889091,14 30.5454545,14.8565455 30.5454545,15.9090909 C30.5454545,16.9616364 29.6889091,17.8181818 28.6363636,17.8181818 C27.5838182,17.8181818 26.7272727,16.9616364 26.7272727,15.9090909 C26.7272727,14.8565455 27.5838182,14 28.6363636,14 L28.6363636,14 Z M22.9090909,14.6363636 C22.9090909,14.9876364 22.6246364,15.2727273 22.2727273,15.2727273 L3.18181818,15.2727273 C2.83054545,15.2727273 2.54545455,14.9876364 2.54545455,14.6363636 C2.54545455,14.2850909 2.83054545,14 3.18181818,14 L22.2727273,14 C22.6246364,14 22.9090909,14.2850909 22.9090909,14.6363636 L22.9090909,14.6363636 Z M28.6363636,2.54545455 C29.6889091,2.54545455 30.5454545,3.402 30.5454545,4.45454545 C30.5454545,5.50709091 29.6889091,6.36363636 28.6363636,6.36363636 C27.5838182,6.36363636 26.7272727,5.50709091 26.7272727,4.45454545 C26.7272727,3.402 27.5838182,2.54545455 28.6363636,2.54545455 L28.6363636,2.54545455 Z M3.18181818,2.54545455 L22.2727273,2.54545455 C22.6246364,2.54545455 22.9090909,2.83054545 22.9090909,3.18181818 C22.9090909,3.53309091 22.6246364,3.81818182 22.2727273,3.81818182 L3.18181818,3.81818182 C2.83054545,3.81818182 2.54545455,3.53309091 2.54545455,3.18181818 C2.54545455,2.83054545 2.83054545,2.54545455 3.18181818,2.54545455 L3.18181818,2.54545455 Z M2.54545455,5.72727273 C2.54545455,5.376 2.83054545,5.09090909 3.18181818,5.09090909 L22.2727273,5.09090909 C22.6246364,5.09090909 22.9090909,5.376 22.9090909,5.72727273 C22.9090909,6.07854545 22.6246364,6.36363636 22.2727273,6.36363636 L3.18181818,6.36363636 C2.83054545,6.36363636 2.54545455,6.07854545 2.54545455,5.72727273 L2.54545455,5.72727273 Z" fill="none" stroke="none" class="main-fill"></path>
      <circle cx="28.636" cy="4.455" r=".636" fill="none" stroke="none" class="main-fill"></circle>
    </g></g><g class="base"><g fill="none" fill-rule="evenodd" stroke="none" class="main-stroke--darken">
    
    
  </g><g fill="none" transform="translate(17.818 19.09)" stroke="none" class="main-stroke--darken">
      <circle cx="28.636" cy="15.909" r=".636" fill="none" stroke="none" class="main-stroke--darken"></circle>
      <circle cx="28.636" cy="27.364" r=".636" fill="none" stroke="none" class="main-stroke--darken"></circle>
      <path d="M33.7272727,8.90909091 C34.0791818,8.90909091 34.3636364,8.624 34.3636364,8.27272727 L34.3636364,0.636363636 C34.3636364,0.285090909 34.0791818,0 33.7272727,0 L0.636363636,0 C0.285090909,0 0,0.285090909 0,0.636363636 L0,8.27272727 C0,8.624 0.285090909,8.90909091 0.636363636,8.90909091 L16.5454545,8.90909091 L16.5454545,11.4545455 L0.636363636,11.4545455 C0.285090909,11.4545455 0,11.7396364 0,12.0909091 L0,19.7272727 C0,20.0791818 0.285090909,20.3636364 0.636363636,20.3636364 L16.5454545,20.3636364 L16.5454545,22.9090909 L0.636363636,22.9090909 C0.285090909,22.9090909 0,23.1935455 0,23.5454545 L0,31.1818182 C0,31.5337273 0.285090909,31.8181818 0.636363636,31.8181818 L33.7272727,31.8181818 C34.0791818,31.8181818 34.3636364,31.5337273 34.3636364,31.1818182 L34.3636364,23.5454545 C34.3636364,23.1935455 34.0791818,22.9090909 33.7272727,22.9090909 L17.8181818,22.9090909 L17.8181818,20.3636364 L33.7272727,20.3636364 C34.0791818,20.3636364 34.3636364,20.0791818 34.3636364,19.7272727 L34.3636364,12.0909091 C34.3636364,11.7396364 34.0791818,11.4545455 33.7272727,11.4545455 L17.8181818,11.4545455 L17.8181818,8.90909091 L33.7272727,8.90909091 L33.7272727,8.90909091 Z M22.2727273,29.2727273 L3.18181818,29.2727273 C2.83054545,29.2727273 2.54545455,28.9882727 2.54545455,28.6363636 C2.54545455,28.2844545 2.83054545,28 3.18181818,28 L22.2727273,28 C22.6246364,28 22.9090909,28.2844545 22.9090909,28.6363636 C22.9090909,28.9882727 22.6246364,29.2727273 22.2727273,29.2727273 L22.2727273,29.2727273 Z M28.6363636,25.4545455 C29.6889091,25.4545455 30.5454545,26.3110909 30.5454545,27.3636364 C30.5454545,28.4161818 29.6889091,29.2727273 28.6363636,29.2727273 C27.5838182,29.2727273 26.7272727,28.4161818 26.7272727,27.3636364 C26.7272727,26.3110909 27.5838182,25.4545455 28.6363636,25.4545455 L28.6363636,25.4545455 Z M22.9090909,26.0909091 C22.9090909,26.4428182 22.6246364,26.7272727 22.2727273,26.7272727 L3.18181818,26.7272727 C2.83054545,26.7272727 2.54545455,26.4428182 2.54545455,26.0909091 C2.54545455,25.739 2.83054545,25.4545455 3.18181818,25.4545455 L22.2727273,25.4545455 C22.6246364,25.4545455 22.9090909,25.739 22.9090909,26.0909091 L22.9090909,26.0909091 Z M22.2727273,17.8181818 L3.18181818,17.8181818 C2.83054545,17.8181818 2.54545455,17.5337273 2.54545455,17.1818182 C2.54545455,16.8299091 2.83054545,16.5454545 3.18181818,16.5454545 L22.2727273,16.5454545 C22.6246364,16.5454545 22.9090909,16.8299091 22.9090909,17.1818182 C22.9090909,17.5337273 22.6246364,17.8181818 22.2727273,17.8181818 L22.2727273,17.8181818 Z M28.6363636,14 C29.6889091,14 30.5454545,14.8565455 30.5454545,15.9090909 C30.5454545,16.9616364 29.6889091,17.8181818 28.6363636,17.8181818 C27.5838182,17.8181818 26.7272727,16.9616364 26.7272727,15.9090909 C26.7272727,14.8565455 27.5838182,14 28.6363636,14 L28.6363636,14 Z M22.9090909,14.6363636 C22.9090909,14.9876364 22.6246364,15.2727273 22.2727273,15.2727273 L3.18181818,15.2727273 C2.83054545,15.2727273 2.54545455,14.9876364 2.54545455,14.6363636 C2.54545455,14.2850909 2.83054545,14 3.18181818,14 L22.2727273,14 C22.6246364,14 22.9090909,14.2850909 22.9090909,14.6363636 L22.9090909,14.6363636 Z M28.6363636,2.54545455 C29.6889091,2.54545455 30.5454545,3.402 30.5454545,4.45454545 C30.5454545,5.50709091 29.6889091,6.36363636 28.6363636,6.36363636 C27.5838182,6.36363636 26.7272727,5.50709091 26.7272727,4.45454545 C26.7272727,3.402 27.5838182,2.54545455 28.6363636,2.54545455 L28.6363636,2.54545455 Z M3.18181818,2.54545455 L22.2727273,2.54545455 C22.6246364,2.54545455 22.9090909,2.83054545 22.9090909,3.18181818 C22.9090909,3.53309091 22.6246364,3.81818182 22.2727273,3.81818182 L3.18181818,3.81818182 C2.83054545,3.81818182 2.54545455,3.53309091 2.54545455,3.18181818 C2.54545455,2.83054545 2.83054545,2.54545455 3.18181818,2.54545455 L3.18181818,2.54545455 Z M2.54545455,5.72727273 C2.54545455,5.376 2.83054545,5.09090909 3.18181818,5.09090909 L22.2727273,5.09090909 C22.6246364,5.09090909 22.9090909,5.376 22.9090909,5.72727273 C22.9090909,6.07854545 22.6246364,6.36363636 22.2727273,6.36363636 L3.18181818,6.36363636 C2.83054545,6.36363636 2.54545455,6.07854545 2.54545455,5.72727273 L2.54545455,5.72727273 Z" fill="none" stroke="none" class="main-stroke--darken"></path>
      <circle cx="28.636" cy="4.455" r=".636" fill="none" stroke="none" class="main-stroke--darken"></circle>
    </g></g></g><style>
          .main-fill {fill: #374549;}
          .main-stroke {stroke: #374549;}
          .secondary-fill {fill: #212529;}
          .secondary-stroke {stroke: #212529;}

          .main-fill--darken {fill: #161c1d;}
          .main-stroke--darken {stroke: #161c1d;}
          .secondary-fill--darken {fill: #000000;}
          .secondary-stroke--darken {stroke: #000000;}

          .main-fill--darkener {fill: #000000;}
          .main-stroke--darkener {stroke: #000000;}
          .secondary-fill--darkener {fill: #000000;}
          .secondary-stroke--darkener {stroke: #000000;}
        </style></svg>