<svg xmlns="http://www.w3.org/2000/svg" width="70" height="70" viewBox="0 0 70 70" style="width: 100%; height: 100%;"><desc>Made with illustrio</desc>
  
<g class="content"><path class="secondary-fill" d="M55 40h5c2.8 0 5-2.2 5-5s-2.2-5-5-5h-7.5c-2.8 0-5-2.2-5-5s2.2-5 5-5 5-2.2 5-5-2.2-5-5-5h-35c-2.8 0-5 2.2-5 5s2.2 5 5 5H20c2.8 0 5 2.2 5 5s-2.2 5-5 5H10c-2.8 0-5 2.2-5 5s2.2 5 5 5h15c2.8 0 5 2.2 5 5s-2.2 5-5 5h-7.5c-2.8 0-5 2.2-5 5s2.2 5 5 5h40c2.8 0 5-2.2 5-5s-2.2-5-5-5H55c-2.8 0-5-2.2-5-5s2.2-5 5-5z" style="fill-opacity: 0.3;"></path><g class="white-layer"><g fill="#ffffff" fill-rule="evenodd" stroke="none">
    
    
  </g><g fill="#ffffff" transform="translate(20.364 17.818)" stroke="none">
      <path d="M14.6363636,22.9090909 C21.91,22.9090909 29.2727273,21.3792727 29.2727273,18.4545455 C29.2727273,15.5298182 21.91,14 14.6363636,14 C7.36272727,14 0,15.5298182 0,18.4545455 C0,21.3792727 7.36272727,22.9090909 14.6363636,22.9090909 L14.6363636,22.9090909 Z" fill="#ffffff" stroke="none"></path>
      <path d="M28.6363636,21 C28.2844545,21 28,21.2844545 28,21.6363636 C28,22.9339091 22.7939091,24.8181818 14.6363636,24.8181818 C6.47881818,24.8181818 1.27272727,22.9339091 1.27272727,21.6363636 C1.27272727,21.2844545 0.987636364,21 0.636363636,21 C0.285090909,21 0,21.2844545 0,21.6363636 L0,24.1818182 C0,27.1065455 7.36272727,28.6363636 14.6363636,28.6363636 C21.91,28.6363636 29.2727273,27.1065455 29.2727273,24.1818182 L29.2727273,21.6363636 C29.2727273,21.2844545 28.9882727,21 28.6363636,21 L28.6363636,21 Z" fill="#ffffff" stroke="none"></path>
      <path d="M28.6363636 26.7272727C28.2844545 26.7272727 28 27.0117273 28 27.3636364 28 28.6611818 22.7939091 30.5454545 14.6363636 30.5454545 6.47881818 30.5454545 1.27272727 28.6611818 1.27272727 27.3636364 1.27272727 27.0117273.987636364 26.7272727.636363636 26.7272727.285090909 26.7272727 0 27.0117273 0 27.3636364L0 29.9090909C0 32.8338182 7.36272727 34.3636364 14.6363636 34.3636364 21.91 34.3636364 29.2727273 32.8338182 29.2727273 29.9090909L29.2727273 27.3636364C29.2727273 27.0117273 28.9882727 26.7272727 28.6363636 26.7272727L28.6363636 26.7272727zM14.6363636 11.4545455C17.7946364 11.4545455 20.3636364 8.88490909 20.3636364 5.72727273 20.3636364 2.56963636 17.7946364 0 14.6363636 0 11.4787273 0 8.90909091 2.56963636 8.90909091 5.72727273 8.90909091 8.88490909 11.4787273 11.4545455 14.6363636 11.4545455L14.6363636 11.4545455zM14 3.18181818C14 2.83054545 14.2850909 2.54545455 14.6363636 2.54545455 14.9876364 2.54545455 15.2727273 2.83054545 15.2727273 3.18181818L15.2727273 5.09090909 15.9090909 5.09090909C16.261 5.09090909 16.5454545 5.376 16.5454545 5.72727273 16.5454545 6.07854545 16.261 6.36363636 15.9090909 6.36363636L14.6363636 6.36363636C14.2850909 6.36363636 14 6.07854545 14 5.72727273L14 3.18181818 14 3.18181818z" fill="#ffffff" stroke="none"></path>
    </g></g><g class="shifted" transform="matrix(1,0,0,1,1.5,0)" style="fill-opacity: 0.3;"><g fill="none" fill-rule="evenodd" stroke="none" class="main-fill">
    
    
  </g><g fill="none" transform="translate(20.364 17.818)" stroke="none" class="main-fill">
      <path d="M14.6363636,22.9090909 C21.91,22.9090909 29.2727273,21.3792727 29.2727273,18.4545455 C29.2727273,15.5298182 21.91,14 14.6363636,14 C7.36272727,14 0,15.5298182 0,18.4545455 C0,21.3792727 7.36272727,22.9090909 14.6363636,22.9090909 L14.6363636,22.9090909 Z" fill="none" stroke="none" class="main-fill"></path>
      <path d="M28.6363636,21 C28.2844545,21 28,21.2844545 28,21.6363636 C28,22.9339091 22.7939091,24.8181818 14.6363636,24.8181818 C6.47881818,24.8181818 1.27272727,22.9339091 1.27272727,21.6363636 C1.27272727,21.2844545 0.987636364,21 0.636363636,21 C0.285090909,21 0,21.2844545 0,21.6363636 L0,24.1818182 C0,27.1065455 7.36272727,28.6363636 14.6363636,28.6363636 C21.91,28.6363636 29.2727273,27.1065455 29.2727273,24.1818182 L29.2727273,21.6363636 C29.2727273,21.2844545 28.9882727,21 28.6363636,21 L28.6363636,21 Z" fill="none" stroke="none" class="main-fill"></path>
      <path d="M28.6363636 26.7272727C28.2844545 26.7272727 28 27.0117273 28 27.3636364 28 28.6611818 22.7939091 30.5454545 14.6363636 30.5454545 6.47881818 30.5454545 1.27272727 28.6611818 1.27272727 27.3636364 1.27272727 27.0117273.987636364 26.7272727.636363636 26.7272727.285090909 26.7272727 0 27.0117273 0 27.3636364L0 29.9090909C0 32.8338182 7.36272727 34.3636364 14.6363636 34.3636364 21.91 34.3636364 29.2727273 32.8338182 29.2727273 29.9090909L29.2727273 27.3636364C29.2727273 27.0117273 28.9882727 26.7272727 28.6363636 26.7272727L28.6363636 26.7272727zM14.6363636 11.4545455C17.7946364 11.4545455 20.3636364 8.88490909 20.3636364 5.72727273 20.3636364 2.56963636 17.7946364 0 14.6363636 0 11.4787273 0 8.90909091 2.56963636 8.90909091 5.72727273 8.90909091 8.88490909 11.4787273 11.4545455 14.6363636 11.4545455L14.6363636 11.4545455zM14 3.18181818C14 2.83054545 14.2850909 2.54545455 14.6363636 2.54545455 14.9876364 2.54545455 15.2727273 2.83054545 15.2727273 3.18181818L15.2727273 5.09090909 15.9090909 5.09090909C16.261 5.09090909 16.5454545 5.376 16.5454545 5.72727273 16.5454545 6.07854545 16.261 6.36363636 15.9090909 6.36363636L14.6363636 6.36363636C14.2850909 6.36363636 14 6.07854545 14 5.72727273L14 3.18181818 14 3.18181818z" fill="none" stroke="none" class="main-fill"></path>
    </g></g><g class="base"><g fill="none" fill-rule="evenodd" stroke="none" class="main-stroke--darken">
    
    
  </g><g fill="none" transform="translate(20.364 17.818)" stroke="none" class="main-stroke--darken">
      <path d="M14.6363636,22.9090909 C21.91,22.9090909 29.2727273,21.3792727 29.2727273,18.4545455 C29.2727273,15.5298182 21.91,14 14.6363636,14 C7.36272727,14 0,15.5298182 0,18.4545455 C0,21.3792727 7.36272727,22.9090909 14.6363636,22.9090909 L14.6363636,22.9090909 Z" fill="none" stroke="none" class="main-stroke--darken"></path>
      <path d="M28.6363636,21 C28.2844545,21 28,21.2844545 28,21.6363636 C28,22.9339091 22.7939091,24.8181818 14.6363636,24.8181818 C6.47881818,24.8181818 1.27272727,22.9339091 1.27272727,21.6363636 C1.27272727,21.2844545 0.987636364,21 0.636363636,21 C0.285090909,21 0,21.2844545 0,21.6363636 L0,24.1818182 C0,27.1065455 7.36272727,28.6363636 14.6363636,28.6363636 C21.91,28.6363636 29.2727273,27.1065455 29.2727273,24.1818182 L29.2727273,21.6363636 C29.2727273,21.2844545 28.9882727,21 28.6363636,21 L28.6363636,21 Z" fill="none" stroke="none" class="main-stroke--darken"></path>
      <path d="M28.6363636 26.7272727C28.2844545 26.7272727 28 27.0117273 28 27.3636364 28 28.6611818 22.7939091 30.5454545 14.6363636 30.5454545 6.47881818 30.5454545 1.27272727 28.6611818 1.27272727 27.3636364 1.27272727 27.0117273.987636364 26.7272727.636363636 26.7272727.285090909 26.7272727 0 27.0117273 0 27.3636364L0 29.9090909C0 32.8338182 7.36272727 34.3636364 14.6363636 34.3636364 21.91 34.3636364 29.2727273 32.8338182 29.2727273 29.9090909L29.2727273 27.3636364C29.2727273 27.0117273 28.9882727 26.7272727 28.6363636 26.7272727L28.6363636 26.7272727zM14.6363636 11.4545455C17.7946364 11.4545455 20.3636364 8.88490909 20.3636364 5.72727273 20.3636364 2.56963636 17.7946364 0 14.6363636 0 11.4787273 0 8.90909091 2.56963636 8.90909091 5.72727273 8.90909091 8.88490909 11.4787273 11.4545455 14.6363636 11.4545455L14.6363636 11.4545455zM14 3.18181818C14 2.83054545 14.2850909 2.54545455 14.6363636 2.54545455 14.9876364 2.54545455 15.2727273 2.83054545 15.2727273 3.18181818L15.2727273 5.09090909 15.9090909 5.09090909C16.261 5.09090909 16.5454545 5.376 16.5454545 5.72727273 16.5454545 6.07854545 16.261 6.36363636 15.9090909 6.36363636L14.6363636 6.36363636C14.2850909 6.36363636 14 6.07854545 14 5.72727273L14 3.18181818 14 3.18181818z" fill="none" stroke="none" class="main-stroke--darken"></path>
    </g></g></g><style>
          .main-fill {fill: #374549;}
          .main-stroke {stroke: #374549;}
          .secondary-fill {fill: #212529;}
          .secondary-stroke {stroke: #212529;}

          .main-fill--darken {fill: #161c1d;}
          .main-stroke--darken {stroke: #161c1d;}
          .secondary-fill--darken {fill: #000000;}
          .secondary-stroke--darken {stroke: #000000;}

          .main-fill--darkener {fill: #000000;}
          .main-stroke--darkener {stroke: #000000;}
          .secondary-fill--darkener {fill: #000000;}
          .secondary-stroke--darkener {stroke: #000000;}
        </style></svg>