<svg xmlns="http://www.w3.org/2000/svg" width="70" height="70" viewBox="0 0 70 70" style="width: 100%; height: 100%;"><desc>Made with illustrio</desc>
  
<g class="content"><path class="secondary-fill" d="M55 40h5c2.8 0 5-2.2 5-5s-2.2-5-5-5h-7.5c-2.8 0-5-2.2-5-5s2.2-5 5-5 5-2.2 5-5-2.2-5-5-5h-35c-2.8 0-5 2.2-5 5s2.2 5 5 5H20c2.8 0 5 2.2 5 5s-2.2 5-5 5H10c-2.8 0-5 2.2-5 5s2.2 5 5 5h15c2.8 0 5 2.2 5 5s-2.2 5-5 5h-7.5c-2.8 0-5 2.2-5 5s2.2 5 5 5h40c2.8 0 5-2.2 5-5s-2.2-5-5-5H55c-2.8 0-5-2.2-5-5s2.2-5 5-5z" style="fill-opacity: 0.3;"></path><g class="white-layer"><g fill="#ffffff" fill-rule="evenodd" stroke="none">
    
    
  </g><g fill="#ffffff" transform="translate(20 20)" stroke="none">
      <path d="M17.3 11L15 11 15 14 17.3 14C18.1 14 18.9 13.4 18.9 12.5 18.9 11.6 18.1 11 17.3 11L17.3 11zM17.3 15L15 15 15 18 17.3 18C18.2 18 18.9 17.3 18.9 16.5 18.9 15.7 18.2 15 17.3 15L17.3 15z" fill="#ffffff" stroke="none"></path>
      <path d="M15,0.5 C7,0.5 0.5,7 0.5,15 C0.5,23 7,29.5 15,29.5 C23,29.5 29.5,23 29.5,15 C29.5,7 23,0.5 15,0.5 L15,0.5 Z M4.1,8.9 C4.4,8.8 4.8,9 4.9,9.3 L5.4,10.7 C7,6.8 10.7,4.2 15,4.2 C20.2,4.2 24.6,8.1 25.3,13.2 C25.3,13.5 25.1,13.9 24.8,13.9 L24.7,13.9 C24.4,13.9 24.1,13.7 24.1,13.4 C23.5,8.9 19.6,5.5 15.1,5.5 C11.1,5.5 7.6,8.1 6.4,11.9 C6.4,11.9 6.4,11.9 6.4,12 L8.8,11.2 C9.1,11.1 9.5,11.3 9.6,11.6 C9.7,11.9 9.5,12.3 9.2,12.4 L5.9,13.5 L5.7,13.5 C5.6,13.5 5.5,13.5 5.4,13.4 C5.3,13.3 5.1,13.2 5.1,13 L3.9,9.7 C3.6,9.3 3.8,9 4.1,8.9 L4.1,8.9 Z M20,16.6 C20,17.5 20,19 17,19 L17,20.5 C17,20.8 16.8,21.1 16.5,21.1 C16.2,21.1 16,20.8 16,20.5 L16,19 L15,19 L15,20.5 C15,20.8 14.8,21.1 14.5,21.1 C14.2,21.1 14,20.9 14,20.5 L14,19 L12.1,19 C11.8,19 11.5,18.9 11.5,18.5 C11.5,18.2 11.8,18 12.1,18 L14,18 L14,11 L12.1,11 C11.8,11 11.5,10.8 11.5,10.5 C11.5,10.2 11.8,10 12.1,10 L14,10 L14,8.8 C14,8.5 14.2,8.2 14.5,8.2 C14.8,8.2 15,8.5 15,8.8 L15,10 L16,10 L16,8.8 C16,8.5 16.2,8.2 16.5,8.2 C16.8,8.2 17,8.5 17,8.8 L17,10 C19.5,10 20,11.3 20,12.5 C20,13.2 19.6,14 18.9,14.4 C19.6,15 20,15.8 20,16.6 L20,16.6 Z M26.3,20.8 L26.1,20.8 C25.8,20.8 25.6,20.6 25.5,20.4 L24.7,18.2 C23.2,22.2 19.3,25 15,25 C9.8,25 5.4,21.1 4.7,16 C4.7,15.7 4.9,15.3 5.2,15.3 C5.5,15.3 5.9,15.5 5.9,15.8 C6.5,20.3 10.4,23.7 14.9,23.7 C18.6,23.7 22,21.4 23.3,18 L21.6,18.5 C21.3,18.6 20.9,18.4 20.8,18.1 C20.7,17.8 20.9,17.4 21.2,17.3 L24.5,16.2 C24.7,16.1 24.9,16.2 25,16.3 C25.1,16.4 25.3,16.5 25.3,16.7 L26.5,20 C26.8,20.3 26.6,20.7 26.3,20.8 L26.3,20.8 Z" fill="#ffffff" stroke="none"></path>
    </g></g><g class="shifted" transform="matrix(1,0,0,1,1.5,0)" style="fill-opacity: 0.3;"><g fill="none" fill-rule="evenodd" stroke="none" class="main-fill">
    
    
  </g><g fill="none" transform="translate(20 20)" stroke="none" class="main-fill">
      <path d="M17.3 11L15 11 15 14 17.3 14C18.1 14 18.9 13.4 18.9 12.5 18.9 11.6 18.1 11 17.3 11L17.3 11zM17.3 15L15 15 15 18 17.3 18C18.2 18 18.9 17.3 18.9 16.5 18.9 15.7 18.2 15 17.3 15L17.3 15z" fill="none" stroke="none" class="main-fill"></path>
      <path d="M15,0.5 C7,0.5 0.5,7 0.5,15 C0.5,23 7,29.5 15,29.5 C23,29.5 29.5,23 29.5,15 C29.5,7 23,0.5 15,0.5 L15,0.5 Z M4.1,8.9 C4.4,8.8 4.8,9 4.9,9.3 L5.4,10.7 C7,6.8 10.7,4.2 15,4.2 C20.2,4.2 24.6,8.1 25.3,13.2 C25.3,13.5 25.1,13.9 24.8,13.9 L24.7,13.9 C24.4,13.9 24.1,13.7 24.1,13.4 C23.5,8.9 19.6,5.5 15.1,5.5 C11.1,5.5 7.6,8.1 6.4,11.9 C6.4,11.9 6.4,11.9 6.4,12 L8.8,11.2 C9.1,11.1 9.5,11.3 9.6,11.6 C9.7,11.9 9.5,12.3 9.2,12.4 L5.9,13.5 L5.7,13.5 C5.6,13.5 5.5,13.5 5.4,13.4 C5.3,13.3 5.1,13.2 5.1,13 L3.9,9.7 C3.6,9.3 3.8,9 4.1,8.9 L4.1,8.9 Z M20,16.6 C20,17.5 20,19 17,19 L17,20.5 C17,20.8 16.8,21.1 16.5,21.1 C16.2,21.1 16,20.8 16,20.5 L16,19 L15,19 L15,20.5 C15,20.8 14.8,21.1 14.5,21.1 C14.2,21.1 14,20.9 14,20.5 L14,19 L12.1,19 C11.8,19 11.5,18.9 11.5,18.5 C11.5,18.2 11.8,18 12.1,18 L14,18 L14,11 L12.1,11 C11.8,11 11.5,10.8 11.5,10.5 C11.5,10.2 11.8,10 12.1,10 L14,10 L14,8.8 C14,8.5 14.2,8.2 14.5,8.2 C14.8,8.2 15,8.5 15,8.8 L15,10 L16,10 L16,8.8 C16,8.5 16.2,8.2 16.5,8.2 C16.8,8.2 17,8.5 17,8.8 L17,10 C19.5,10 20,11.3 20,12.5 C20,13.2 19.6,14 18.9,14.4 C19.6,15 20,15.8 20,16.6 L20,16.6 Z M26.3,20.8 L26.1,20.8 C25.8,20.8 25.6,20.6 25.5,20.4 L24.7,18.2 C23.2,22.2 19.3,25 15,25 C9.8,25 5.4,21.1 4.7,16 C4.7,15.7 4.9,15.3 5.2,15.3 C5.5,15.3 5.9,15.5 5.9,15.8 C6.5,20.3 10.4,23.7 14.9,23.7 C18.6,23.7 22,21.4 23.3,18 L21.6,18.5 C21.3,18.6 20.9,18.4 20.8,18.1 C20.7,17.8 20.9,17.4 21.2,17.3 L24.5,16.2 C24.7,16.1 24.9,16.2 25,16.3 C25.1,16.4 25.3,16.5 25.3,16.7 L26.5,20 C26.8,20.3 26.6,20.7 26.3,20.8 L26.3,20.8 Z" fill="none" stroke="none" class="main-fill"></path>
    </g></g><g class="base"><g fill="none" fill-rule="evenodd" stroke="none" class="main-stroke--darken">
    
    
  </g><g fill="none" transform="translate(20 20)" stroke="none" class="main-stroke--darken">
      <path d="M17.3 11L15 11 15 14 17.3 14C18.1 14 18.9 13.4 18.9 12.5 18.9 11.6 18.1 11 17.3 11L17.3 11zM17.3 15L15 15 15 18 17.3 18C18.2 18 18.9 17.3 18.9 16.5 18.9 15.7 18.2 15 17.3 15L17.3 15z" fill="none" stroke="none" class="main-stroke--darken"></path>
      <path d="M15,0.5 C7,0.5 0.5,7 0.5,15 C0.5,23 7,29.5 15,29.5 C23,29.5 29.5,23 29.5,15 C29.5,7 23,0.5 15,0.5 L15,0.5 Z M4.1,8.9 C4.4,8.8 4.8,9 4.9,9.3 L5.4,10.7 C7,6.8 10.7,4.2 15,4.2 C20.2,4.2 24.6,8.1 25.3,13.2 C25.3,13.5 25.1,13.9 24.8,13.9 L24.7,13.9 C24.4,13.9 24.1,13.7 24.1,13.4 C23.5,8.9 19.6,5.5 15.1,5.5 C11.1,5.5 7.6,8.1 6.4,11.9 C6.4,11.9 6.4,11.9 6.4,12 L8.8,11.2 C9.1,11.1 9.5,11.3 9.6,11.6 C9.7,11.9 9.5,12.3 9.2,12.4 L5.9,13.5 L5.7,13.5 C5.6,13.5 5.5,13.5 5.4,13.4 C5.3,13.3 5.1,13.2 5.1,13 L3.9,9.7 C3.6,9.3 3.8,9 4.1,8.9 L4.1,8.9 Z M20,16.6 C20,17.5 20,19 17,19 L17,20.5 C17,20.8 16.8,21.1 16.5,21.1 C16.2,21.1 16,20.8 16,20.5 L16,19 L15,19 L15,20.5 C15,20.8 14.8,21.1 14.5,21.1 C14.2,21.1 14,20.9 14,20.5 L14,19 L12.1,19 C11.8,19 11.5,18.9 11.5,18.5 C11.5,18.2 11.8,18 12.1,18 L14,18 L14,11 L12.1,11 C11.8,11 11.5,10.8 11.5,10.5 C11.5,10.2 11.8,10 12.1,10 L14,10 L14,8.8 C14,8.5 14.2,8.2 14.5,8.2 C14.8,8.2 15,8.5 15,8.8 L15,10 L16,10 L16,8.8 C16,8.5 16.2,8.2 16.5,8.2 C16.8,8.2 17,8.5 17,8.8 L17,10 C19.5,10 20,11.3 20,12.5 C20,13.2 19.6,14 18.9,14.4 C19.6,15 20,15.8 20,16.6 L20,16.6 Z M26.3,20.8 L26.1,20.8 C25.8,20.8 25.6,20.6 25.5,20.4 L24.7,18.2 C23.2,22.2 19.3,25 15,25 C9.8,25 5.4,21.1 4.7,16 C4.7,15.7 4.9,15.3 5.2,15.3 C5.5,15.3 5.9,15.5 5.9,15.8 C6.5,20.3 10.4,23.7 14.9,23.7 C18.6,23.7 22,21.4 23.3,18 L21.6,18.5 C21.3,18.6 20.9,18.4 20.8,18.1 C20.7,17.8 20.9,17.4 21.2,17.3 L24.5,16.2 C24.7,16.1 24.9,16.2 25,16.3 C25.1,16.4 25.3,16.5 25.3,16.7 L26.5,20 C26.8,20.3 26.6,20.7 26.3,20.8 L26.3,20.8 Z" fill="none" stroke="none" class="main-stroke--darken"></path>
    </g></g></g><style>
          .main-fill {fill: #374549;}
          .main-stroke {stroke: #374549;}
          .secondary-fill {fill: #212529;}
          .secondary-stroke {stroke: #212529;}

          .main-fill--darken {fill: #161c1d;}
          .main-stroke--darken {stroke: #161c1d;}
          .secondary-fill--darken {fill: #000000;}
          .secondary-stroke--darken {stroke: #000000;}

          .main-fill--darkener {fill: #000000;}
          .main-stroke--darkener {stroke: #000000;}
          .secondary-fill--darkener {fill: #000000;}
          .secondary-stroke--darkener {stroke: #000000;}
        </style></svg>