<svg xmlns="http://www.w3.org/2000/svg" width="70" height="70" viewBox="0 0 70 70" style="width: 100%; height: 100%;"><desc>Made with illustrio</desc>
  
<g class="content"><path class="secondary-fill" d="M55 40h5c2.8 0 5-2.2 5-5s-2.2-5-5-5h-7.5c-2.8 0-5-2.2-5-5s2.2-5 5-5 5-2.2 5-5-2.2-5-5-5h-35c-2.8 0-5 2.2-5 5s2.2 5 5 5H20c2.8 0 5 2.2 5 5s-2.2 5-5 5H10c-2.8 0-5 2.2-5 5s2.2 5 5 5h15c2.8 0 5 2.2 5 5s-2.2 5-5 5h-7.5c-2.8 0-5 2.2-5 5s2.2 5 5 5h40c2.8 0 5-2.2 5-5s-2.2-5-5-5H55c-2.8 0-5-2.2-5-5s2.2-5 5-5z" style="fill-opacity: 0.3;"></path><g class="white-layer"><g fill="#ffffff" fill-rule="evenodd" stroke="none">
    
    
  </g><g fill="#ffffff" transform="translate(21 21)" stroke="none">
      <path d="M27,25 L2,25 L2,0.7 C2,0.3 1.4,0 1,0 C0.6,0 0,0.3 0,0.7 L0,26.4 C0,26.7 0.1,27 0.6,27 L27,27 C27.4,27 27.7,26.2 27.7,25.9 C27.7,25.5 27.4,25 27,25 L27,25 Z" fill="#ffffff" stroke="none"></path>
      <path d="M17 1.3C16.6 1.3 16 1.6 16 2L16 5 15.4 5C15 5 15 5.1 15 5.5L15 12.5C15 12.9 15 13 15.4 13L16 13 16 15.3C16 15.7 16.6 16 17 16 17.4 16 18 15.7 18 15.3L18 13 18.6 13C19 13 19 12.9 19 12.5L19 5.5C19 5.1 18.9 5 18.6 5L18 5 18 2C18 1.6 17.4 1.3 17 1.3L17 1.3zM23 7.3C22.6 7.3 22 7.6 22 8L22 11 21.4 11C21 11 21 11.1 21 11.5L21 18.5C21 18.9 21 19 21.4 19L22 19 22 21.3C22 21.7 22.6 22 23 22 23.4 22 24 21.7 24 21.3L24 19 24.6 19C25 19 25 18.9 25 18.5L25 11.4C25 11 24.9 10.9 24.6 10.9L24 10.9 24 7.9C24 7.6 23.4 7.3 23 7.3L23 7.3zM9 15.5C9 15.9 9 16 9.4 16L10 16 10 18.3C10 18.7 10.6 19 11 19 11.4 19 12 18.7 12 18.3L12 16 12.6 16C13 16 13 15.9 13 15.5L13 8.4C13 8 12.9 7.9 12.6 7.9L12 7.9 12 5C12 4.6 11.4 4.3 11 4.3 10.6 4.3 10 4.6 10 5L10 8 9.4 8C9 8 9 8.1 9 8.5L9 15.5 9 15.5zM4 19.5C4 19.9 4 20 4.4 20L5 20 5 22.3C5 22.7 5.6 23 6 23 6.4 23 7 22.7 7 22.3L7 20 7.6 20C8 20 8 19.9 8 19.5L8 12.4C8 12 7.9 11.9 7.6 11.9L7 11.9 7 8.9C7 8.5 6.4 8.2 6 8.2 5.6 8.2 5 8.5 5 8.9L5 11.9 4.4 11.9C4 12 4 12.1 4 12.5L4 19.5 4 19.5z" fill="#ffffff" stroke="none"></path>
    </g></g><g class="shifted" transform="matrix(1,0,0,1,1.5,0)" style="fill-opacity: 0.3;"><g fill="none" fill-rule="evenodd" stroke="none" class="main-fill">
    
    
  </g><g fill="none" transform="translate(21 21)" stroke="none" class="main-fill">
      <path d="M27,25 L2,25 L2,0.7 C2,0.3 1.4,0 1,0 C0.6,0 0,0.3 0,0.7 L0,26.4 C0,26.7 0.1,27 0.6,27 L27,27 C27.4,27 27.7,26.2 27.7,25.9 C27.7,25.5 27.4,25 27,25 L27,25 Z" fill="none" stroke="none" class="main-fill"></path>
      <path d="M17 1.3C16.6 1.3 16 1.6 16 2L16 5 15.4 5C15 5 15 5.1 15 5.5L15 12.5C15 12.9 15 13 15.4 13L16 13 16 15.3C16 15.7 16.6 16 17 16 17.4 16 18 15.7 18 15.3L18 13 18.6 13C19 13 19 12.9 19 12.5L19 5.5C19 5.1 18.9 5 18.6 5L18 5 18 2C18 1.6 17.4 1.3 17 1.3L17 1.3zM23 7.3C22.6 7.3 22 7.6 22 8L22 11 21.4 11C21 11 21 11.1 21 11.5L21 18.5C21 18.9 21 19 21.4 19L22 19 22 21.3C22 21.7 22.6 22 23 22 23.4 22 24 21.7 24 21.3L24 19 24.6 19C25 19 25 18.9 25 18.5L25 11.4C25 11 24.9 10.9 24.6 10.9L24 10.9 24 7.9C24 7.6 23.4 7.3 23 7.3L23 7.3zM9 15.5C9 15.9 9 16 9.4 16L10 16 10 18.3C10 18.7 10.6 19 11 19 11.4 19 12 18.7 12 18.3L12 16 12.6 16C13 16 13 15.9 13 15.5L13 8.4C13 8 12.9 7.9 12.6 7.9L12 7.9 12 5C12 4.6 11.4 4.3 11 4.3 10.6 4.3 10 4.6 10 5L10 8 9.4 8C9 8 9 8.1 9 8.5L9 15.5 9 15.5zM4 19.5C4 19.9 4 20 4.4 20L5 20 5 22.3C5 22.7 5.6 23 6 23 6.4 23 7 22.7 7 22.3L7 20 7.6 20C8 20 8 19.9 8 19.5L8 12.4C8 12 7.9 11.9 7.6 11.9L7 11.9 7 8.9C7 8.5 6.4 8.2 6 8.2 5.6 8.2 5 8.5 5 8.9L5 11.9 4.4 11.9C4 12 4 12.1 4 12.5L4 19.5 4 19.5z" fill="none" stroke="none" class="main-fill"></path>
    </g></g><g class="base"><g fill="none" fill-rule="evenodd" stroke="none" class="main-stroke--darken">
    
    
  </g><g fill="none" transform="translate(21 21)" stroke="none" class="main-stroke--darken">
      <path d="M27,25 L2,25 L2,0.7 C2,0.3 1.4,0 1,0 C0.6,0 0,0.3 0,0.7 L0,26.4 C0,26.7 0.1,27 0.6,27 L27,27 C27.4,27 27.7,26.2 27.7,25.9 C27.7,25.5 27.4,25 27,25 L27,25 Z" fill="none" stroke="none" class="main-stroke--darken"></path>
      <path d="M17 1.3C16.6 1.3 16 1.6 16 2L16 5 15.4 5C15 5 15 5.1 15 5.5L15 12.5C15 12.9 15 13 15.4 13L16 13 16 15.3C16 15.7 16.6 16 17 16 17.4 16 18 15.7 18 15.3L18 13 18.6 13C19 13 19 12.9 19 12.5L19 5.5C19 5.1 18.9 5 18.6 5L18 5 18 2C18 1.6 17.4 1.3 17 1.3L17 1.3zM23 7.3C22.6 7.3 22 7.6 22 8L22 11 21.4 11C21 11 21 11.1 21 11.5L21 18.5C21 18.9 21 19 21.4 19L22 19 22 21.3C22 21.7 22.6 22 23 22 23.4 22 24 21.7 24 21.3L24 19 24.6 19C25 19 25 18.9 25 18.5L25 11.4C25 11 24.9 10.9 24.6 10.9L24 10.9 24 7.9C24 7.6 23.4 7.3 23 7.3L23 7.3zM9 15.5C9 15.9 9 16 9.4 16L10 16 10 18.3C10 18.7 10.6 19 11 19 11.4 19 12 18.7 12 18.3L12 16 12.6 16C13 16 13 15.9 13 15.5L13 8.4C13 8 12.9 7.9 12.6 7.9L12 7.9 12 5C12 4.6 11.4 4.3 11 4.3 10.6 4.3 10 4.6 10 5L10 8 9.4 8C9 8 9 8.1 9 8.5L9 15.5 9 15.5zM4 19.5C4 19.9 4 20 4.4 20L5 20 5 22.3C5 22.7 5.6 23 6 23 6.4 23 7 22.7 7 22.3L7 20 7.6 20C8 20 8 19.9 8 19.5L8 12.4C8 12 7.9 11.9 7.6 11.9L7 11.9 7 8.9C7 8.5 6.4 8.2 6 8.2 5.6 8.2 5 8.5 5 8.9L5 11.9 4.4 11.9C4 12 4 12.1 4 12.5L4 19.5 4 19.5z" fill="none" stroke="none" class="main-stroke--darken"></path>
    </g></g></g><style>
          .main-fill {fill: #374549;}
          .main-stroke {stroke: #374549;}
          .secondary-fill {fill: #212529;}
          .secondary-stroke {stroke: #212529;}

          .main-fill--darken {fill: #161c1d;}
          .main-stroke--darken {stroke: #161c1d;}
          .secondary-fill--darken {fill: #000000;}
          .secondary-stroke--darken {stroke: #000000;}

          .main-fill--darkener {fill: #000000;}
          .main-stroke--darkener {stroke: #000000;}
          .secondary-fill--darkener {fill: #000000;}
          .secondary-stroke--darkener {stroke: #000000;}
        </style></svg>