<svg xmlns="http://www.w3.org/2000/svg" width="70" height="70" viewBox="0 0 70 70" style="width: 100%; height: 100%;"><desc>Made with illustrio</desc>
  
<g class="content"><path class="secondary-fill" d="M55 40h5c2.8 0 5-2.2 5-5s-2.2-5-5-5h-7.5c-2.8 0-5-2.2-5-5s2.2-5 5-5 5-2.2 5-5-2.2-5-5-5h-35c-2.8 0-5 2.2-5 5s2.2 5 5 5H20c2.8 0 5 2.2 5 5s-2.2 5-5 5H10c-2.8 0-5 2.2-5 5s2.2 5 5 5h15c2.8 0 5 2.2 5 5s-2.2 5-5 5h-7.5c-2.8 0-5 2.2-5 5s2.2 5 5 5h40c2.8 0 5-2.2 5-5s-2.2-5-5-5H55c-2.8 0-5-2.2-5-5s2.2-5 5-5z" style="fill-opacity: 0.3;"></path><g class="white-layer"><g fill="#ffffff" fill-rule="evenodd" stroke="none">
    
    
  </g><g fill="#ffffff" transform="translate(19 21)" stroke="none">
      <path d="M26.4,17 C26.3,17 26.1,16.9 26,16.8 C25.7,16.6 25.7,16.2 25.9,15.9 C26.1,15.7 26.4,15.2 26.4,14.7 C26.4,14.1 26.1,13.5 25.6,13.2 C25.3,13 25.2,12.6 25.4,12.3 C25.6,12 26,11.9 26.3,12.1 C27.2,12.7 27.7,13.7 27.7,14.7 C27.7,15.5 27.4,16.2 26.9,16.8 C26.8,16.9 26.6,17 26.4,17 L26.4,17 Z" fill="#ffffff" stroke="none"></path>
      <path d="M27.9 18.9C27.7 18.9 27.6 18.8 27.5 18.7 27.2 18.5 27.2 18.1 27.5 17.8 28.3 16.9 28.8 15.8 28.8 14.6 28.8 13.2 28.1 11.8 27 10.9 26.7 10.7 26.7 10.3 26.9 10 27.1 9.7 27.5 9.7 27.8 9.9 29.3 11.1 30.1 12.8 30.1 14.6 30.1 16.1 29.5 17.5 28.5 18.7 28.3 18.9 28.1 18.9 27.9 18.9L27.9 18.9zM4.1 16.7C4 16.7 3.9 16.7 3.8 16.6 2.9 16 2.4 15 2.4 14 2.4 13.2 2.7 12.5 3.2 11.9 3.4 11.6 3.8 11.6 4.1 11.8 4.4 12 4.4 12.4 4.2 12.7 4 12.9 3.7 13.4 3.7 13.9 3.7 14.5 4 15.1 4.5 15.4 4.8 15.6 4.9 16 4.7 16.3 4.5 16.6 4.3 16.7 4.1 16.7L4.1 16.7z" fill="#ffffff" stroke="none"></path>
      <path d="M2.7 18.9C2.6 18.9 2.4 18.9 2.3 18.8.8 17.6 0 15.9 0 14.1 0 12.6.6 11.2 1.6 10 1.8 9.7 2.2 9.7 2.5 10 2.8 10.2 2.8 10.6 2.5 10.9 1.7 11.8 1.2 12.9 1.2 14.1 1.2 15.5 1.9 16.9 3 17.8 3.3 18 3.3 18.4 3.1 18.7 3.1 18.9 2.9 18.9 2.7 18.9L2.7 18.9zM26.7 22L24.4 17.1 24.4 12.2C24.4 7.5 20.6 3.5 16.8 2.8L16.8 2.5C16.8 1.4 15.9.6 14.9.6 13.8.6 13 1.5 13 2.5L13 2.9C7.9 3.9 5.4 7.7 5.4 12.1L5.4 17 2.7 22C2.6 22.2 2.5 22.3 2.6 22.5 2.7 22.7 2.8 22.7 3 22.7L25.9 22.7C26.1 22.7 26.4 22.7 26.5 22.5 26.7 22.3 26.8 22.2 26.7 22L26.7 22zM14 6.7C10 6.7 9.6 11.7 9.6 11.9 9.6 12.2 9.3 12.6 9 12.6L9 12.6C8.7 12.6 8.4 12.2 8.4 11.8 8.6 9.6 10 5.5 14.1 5.5 14.4 5.5 14.7 5.8 14.7 6.1 14.7 6.4 14.4 6.7 14 6.7L14 6.7zM14.3 27.4C16.4 27.4 18.2 25.9 18.7 24L9.8 24C10.4 26 12.2 27.4 14.3 27.4L14.3 27.4z" fill="#ffffff" stroke="none"></path>
    </g></g><g class="shifted" transform="matrix(1,0,0,1,1.5,0)" style="fill-opacity: 0.3;"><g fill="none" fill-rule="evenodd" stroke="none" class="main-fill">
    
    
  </g><g fill="none" transform="translate(19 21)" stroke="none" class="main-fill">
      <path d="M26.4,17 C26.3,17 26.1,16.9 26,16.8 C25.7,16.6 25.7,16.2 25.9,15.9 C26.1,15.7 26.4,15.2 26.4,14.7 C26.4,14.1 26.1,13.5 25.6,13.2 C25.3,13 25.2,12.6 25.4,12.3 C25.6,12 26,11.9 26.3,12.1 C27.2,12.7 27.7,13.7 27.7,14.7 C27.7,15.5 27.4,16.2 26.9,16.8 C26.8,16.9 26.6,17 26.4,17 L26.4,17 Z" fill="none" stroke="none" class="main-fill"></path>
      <path d="M27.9 18.9C27.7 18.9 27.6 18.8 27.5 18.7 27.2 18.5 27.2 18.1 27.5 17.8 28.3 16.9 28.8 15.8 28.8 14.6 28.8 13.2 28.1 11.8 27 10.9 26.7 10.7 26.7 10.3 26.9 10 27.1 9.7 27.5 9.7 27.8 9.9 29.3 11.1 30.1 12.8 30.1 14.6 30.1 16.1 29.5 17.5 28.5 18.7 28.3 18.9 28.1 18.9 27.9 18.9L27.9 18.9zM4.1 16.7C4 16.7 3.9 16.7 3.8 16.6 2.9 16 2.4 15 2.4 14 2.4 13.2 2.7 12.5 3.2 11.9 3.4 11.6 3.8 11.6 4.1 11.8 4.4 12 4.4 12.4 4.2 12.7 4 12.9 3.7 13.4 3.7 13.9 3.7 14.5 4 15.1 4.5 15.4 4.8 15.6 4.9 16 4.7 16.3 4.5 16.6 4.3 16.7 4.1 16.7L4.1 16.7z" fill="none" stroke="none" class="main-fill"></path>
      <path d="M2.7 18.9C2.6 18.9 2.4 18.9 2.3 18.8.8 17.6 0 15.9 0 14.1 0 12.6.6 11.2 1.6 10 1.8 9.7 2.2 9.7 2.5 10 2.8 10.2 2.8 10.6 2.5 10.9 1.7 11.8 1.2 12.9 1.2 14.1 1.2 15.5 1.9 16.9 3 17.8 3.3 18 3.3 18.4 3.1 18.7 3.1 18.9 2.9 18.9 2.7 18.9L2.7 18.9zM26.7 22L24.4 17.1 24.4 12.2C24.4 7.5 20.6 3.5 16.8 2.8L16.8 2.5C16.8 1.4 15.9.6 14.9.6 13.8.6 13 1.5 13 2.5L13 2.9C7.9 3.9 5.4 7.7 5.4 12.1L5.4 17 2.7 22C2.6 22.2 2.5 22.3 2.6 22.5 2.7 22.7 2.8 22.7 3 22.7L25.9 22.7C26.1 22.7 26.4 22.7 26.5 22.5 26.7 22.3 26.8 22.2 26.7 22L26.7 22zM14 6.7C10 6.7 9.6 11.7 9.6 11.9 9.6 12.2 9.3 12.6 9 12.6L9 12.6C8.7 12.6 8.4 12.2 8.4 11.8 8.6 9.6 10 5.5 14.1 5.5 14.4 5.5 14.7 5.8 14.7 6.1 14.7 6.4 14.4 6.7 14 6.7L14 6.7zM14.3 27.4C16.4 27.4 18.2 25.9 18.7 24L9.8 24C10.4 26 12.2 27.4 14.3 27.4L14.3 27.4z" fill="none" stroke="none" class="main-fill"></path>
    </g></g><g class="base"><g fill="none" fill-rule="evenodd" stroke="none" class="main-stroke--darken">
    
    
  </g><g fill="none" transform="translate(19 21)" stroke="none" class="main-stroke--darken">
      <path d="M26.4,17 C26.3,17 26.1,16.9 26,16.8 C25.7,16.6 25.7,16.2 25.9,15.9 C26.1,15.7 26.4,15.2 26.4,14.7 C26.4,14.1 26.1,13.5 25.6,13.2 C25.3,13 25.2,12.6 25.4,12.3 C25.6,12 26,11.9 26.3,12.1 C27.2,12.7 27.7,13.7 27.7,14.7 C27.7,15.5 27.4,16.2 26.9,16.8 C26.8,16.9 26.6,17 26.4,17 L26.4,17 Z" fill="none" stroke="none" class="main-stroke--darken"></path>
      <path d="M27.9 18.9C27.7 18.9 27.6 18.8 27.5 18.7 27.2 18.5 27.2 18.1 27.5 17.8 28.3 16.9 28.8 15.8 28.8 14.6 28.8 13.2 28.1 11.8 27 10.9 26.7 10.7 26.7 10.3 26.9 10 27.1 9.7 27.5 9.7 27.8 9.9 29.3 11.1 30.1 12.8 30.1 14.6 30.1 16.1 29.5 17.5 28.5 18.7 28.3 18.9 28.1 18.9 27.9 18.9L27.9 18.9zM4.1 16.7C4 16.7 3.9 16.7 3.8 16.6 2.9 16 2.4 15 2.4 14 2.4 13.2 2.7 12.5 3.2 11.9 3.4 11.6 3.8 11.6 4.1 11.8 4.4 12 4.4 12.4 4.2 12.7 4 12.9 3.7 13.4 3.7 13.9 3.7 14.5 4 15.1 4.5 15.4 4.8 15.6 4.9 16 4.7 16.3 4.5 16.6 4.3 16.7 4.1 16.7L4.1 16.7z" fill="none" stroke="none" class="main-stroke--darken"></path>
      <path d="M2.7 18.9C2.6 18.9 2.4 18.9 2.3 18.8.8 17.6 0 15.9 0 14.1 0 12.6.6 11.2 1.6 10 1.8 9.7 2.2 9.7 2.5 10 2.8 10.2 2.8 10.6 2.5 10.9 1.7 11.8 1.2 12.9 1.2 14.1 1.2 15.5 1.9 16.9 3 17.8 3.3 18 3.3 18.4 3.1 18.7 3.1 18.9 2.9 18.9 2.7 18.9L2.7 18.9zM26.7 22L24.4 17.1 24.4 12.2C24.4 7.5 20.6 3.5 16.8 2.8L16.8 2.5C16.8 1.4 15.9.6 14.9.6 13.8.6 13 1.5 13 2.5L13 2.9C7.9 3.9 5.4 7.7 5.4 12.1L5.4 17 2.7 22C2.6 22.2 2.5 22.3 2.6 22.5 2.7 22.7 2.8 22.7 3 22.7L25.9 22.7C26.1 22.7 26.4 22.7 26.5 22.5 26.7 22.3 26.8 22.2 26.7 22L26.7 22zM14 6.7C10 6.7 9.6 11.7 9.6 11.9 9.6 12.2 9.3 12.6 9 12.6L9 12.6C8.7 12.6 8.4 12.2 8.4 11.8 8.6 9.6 10 5.5 14.1 5.5 14.4 5.5 14.7 5.8 14.7 6.1 14.7 6.4 14.4 6.7 14 6.7L14 6.7zM14.3 27.4C16.4 27.4 18.2 25.9 18.7 24L9.8 24C10.4 26 12.2 27.4 14.3 27.4L14.3 27.4z" fill="none" stroke="none" class="main-stroke--darken"></path>
    </g></g></g><style>
          .main-fill {fill: #374549;}
          .main-stroke {stroke: #374549;}
          .secondary-fill {fill: #212529;}
          .secondary-stroke {stroke: #212529;}

          .main-fill--darken {fill: #161c1d;}
          .main-stroke--darken {stroke: #161c1d;}
          .secondary-fill--darken {fill: #000000;}
          .secondary-stroke--darken {stroke: #000000;}

          .main-fill--darkener {fill: #000000;}
          .main-stroke--darkener {stroke: #000000;}
          .secondary-fill--darkener {fill: #000000;}
          .secondary-stroke--darkener {stroke: #000000;}
        </style></svg>