<svg xmlns="http://www.w3.org/2000/svg" width="70" height="70" viewBox="0 0 70 70" style="width: 100%; height: 100%;"><desc>Made with illustrio</desc>
  
<g class="content"><path class="secondary-fill" d="M55 40h5c2.8 0 5-2.2 5-5s-2.2-5-5-5h-7.5c-2.8 0-5-2.2-5-5s2.2-5 5-5 5-2.2 5-5-2.2-5-5-5h-35c-2.8 0-5 2.2-5 5s2.2 5 5 5H20c2.8 0 5 2.2 5 5s-2.2 5-5 5H10c-2.8 0-5 2.2-5 5s2.2 5 5 5h15c2.8 0 5 2.2 5 5s-2.2 5-5 5h-7.5c-2.8 0-5 2.2-5 5s2.2 5 5 5h40c2.8 0 5-2.2 5-5s-2.2-5-5-5H55c-2.8 0-5-2.2-5-5s2.2-5 5-5z" style="fill-opacity: 0.3;"></path><g class="white-layer"><g fill="#ffffff" fill-rule="evenodd" stroke="none">
    
    
    <path fill="#ffffff" d="M14.4117647,0.149132941 C12.8149412,0.149132941 11.5294118,1.43466235 11.5294118,3.03148588 C11.5294118,4.62830941 12.8149412,5.91383882 14.4117647,5.91383882 L31.7058824,5.91383882 C33.3027059,5.91383882 34.5882353,4.62830941 34.5882353,3.03148588 C34.5882353,1.43466235 33.3027059,0.149132941 31.7058824,0.149132941 L14.4117647,0.149132941 Z M14.4117647,7.56089765 C12.8582514,7.56089765 11.596557,8.77818612 11.5294118,10.3145741 C13.5670941,10.7954453 15.3767711,11.8655061 16.7794118,13.3256035 L31.7058824,13.3256035 C33.3027059,13.3256035 34.5882353,12.0400741 34.5882353,10.4432506 C34.5882353,8.84642706 33.3027059,7.56089765 31.7058824,7.56089765 L14.4117647,7.56089765 Z M9.05882353,11.6785447 C4.05577571,11.6785447 0,15.7341388 0,20.7373682 C0,25.7405565 4.05577571,29.7961918 9.05882353,29.7961918 C14.0618759,29.7961918 18.1176471,25.7405565 18.1176471,20.7373682 C18.1176471,15.7341388 14.0618759,11.6785447 9.05882353,11.6785447 Z M9.05882353,13.3256035 C9.44828541,13.3256035 9.88235294,13.6818582 9.88235294,14.1491329 L9.88235294,15.0627359 C10.4702451,15.1750591 11.0298848,15.3930807 11.5036765,15.7189859 C12.1957315,16.1950271 12.7647059,16.9369447 12.7647059,17.8550153 C12.7689082,18.152011 12.61287,18.4282624 12.3563417,18.5779866 C12.0998135,18.7277108 11.7825395,18.7277108 11.5260112,18.5779866 C11.2694829,18.4282624 11.1134447,18.152011 11.1176471,17.8550153 C11.1176471,17.6312212 10.9667291,17.3379829 10.5772059,17.0700888 C10.1876826,16.8021535 9.60301465,16.6197212 9.05882353,16.6197212 C7.73647741,16.6197212 7,17.5465212 7,18.26678 C7,18.8533388 7.146006,19.0212565 7.51470588,19.2704565 C7.88340576,19.5196565 8.53767147,19.7245918 9.29044118,19.9395741 C10.0474694,20.1557918 10.8343846,20.3705682 11.5294118,20.8403094 C12.2244389,21.3100506 12.7647059,22.1603035 12.7647059,23.2079565 C12.7647059,24.7245126 11.5687781,26.0848741 9.88235294,26.4248682 L9.88235294,27.3256035 C9.88235294,27.7607153 9.44579671,28.1491329 9.05882353,28.1491329 C8.67185035,28.1491329 8.23529412,27.7607153 8.23529412,27.3256035 L8.23529412,26.4248682 C7.64740282,26.3125355 7.08776394,26.0816274 6.61397059,25.7557506 C5.92191312,25.2797506 5.35294118,24.5377918 5.35294118,23.6197212 C5.34873882,23.3227255 5.50477707,23.0464741 5.76130534,22.8967499 C6.0178336,22.7470257 6.33510757,22.7470257 6.59163584,22.8967499 C6.84816411,23.0464741 7.00420236,23.3227255 7,23.6197212 C7,23.8435153 7.15092,24.1238447 7.54044118,24.39178 C7.92996235,24.6597153 8.51462459,24.8550153 9.05882353,24.8550153 C10.3811828,24.8550153 11.1176471,23.9282153 11.1176471,23.2079565 C11.1176471,22.6213976 10.9716411,22.45348 10.6029412,22.20428 C10.2342413,21.95508 9.57997559,21.7373182 8.82720588,21.5222947 C8.07017771,21.3061182 7.28326241,21.1041682 6.58823529,20.6344271 C5.89320818,20.1646859 5.35294118,19.3144329 5.35294118,18.26678 C5.35294118,16.7503762 6.54913247,15.4029005 8.23529412,15.0627359 L8.23529412,14.1491329 C8.23529412,13.7420335 8.66936165,13.3256035 9.05882353,13.3256035 Z M18.0790441,14.9726624 C19.1466182,16.6378569 19.7647059,18.6124198 19.7647059,20.7373682 L31.7058824,20.7373682 C33.3027059,20.7373682 34.5882353,19.4518388 34.5882353,17.8550153 C34.5882353,16.2581918 33.3027059,14.9726624 31.7058824,14.9726624 L18.0790441,14.9726624 Z M19.6360294,22.3844271 C19.2934951,24.6084691 18.2689311,26.5985959 16.7794118,28.1491329 L31.7058824,28.1491329 C33.3027059,28.1491329 34.5882353,26.8636035 34.5882353,25.26678 C34.5882353,23.6699565 33.3027059,22.3844271 31.7058824,22.3844271 L19.6360294,22.3844271 Z" transform="translate(17.706 20.027)" stroke="none"></path>
  </g></g><g class="shifted" transform="matrix(1,0,0,1,1.5,0)" style="fill-opacity: 0.3;"><g fill="none" fill-rule="evenodd" stroke="none" class="main-fill">
    
    
    <path fill="none" d="M14.4117647,0.149132941 C12.8149412,0.149132941 11.5294118,1.43466235 11.5294118,3.03148588 C11.5294118,4.62830941 12.8149412,5.91383882 14.4117647,5.91383882 L31.7058824,5.91383882 C33.3027059,5.91383882 34.5882353,4.62830941 34.5882353,3.03148588 C34.5882353,1.43466235 33.3027059,0.149132941 31.7058824,0.149132941 L14.4117647,0.149132941 Z M14.4117647,7.56089765 C12.8582514,7.56089765 11.596557,8.77818612 11.5294118,10.3145741 C13.5670941,10.7954453 15.3767711,11.8655061 16.7794118,13.3256035 L31.7058824,13.3256035 C33.3027059,13.3256035 34.5882353,12.0400741 34.5882353,10.4432506 C34.5882353,8.84642706 33.3027059,7.56089765 31.7058824,7.56089765 L14.4117647,7.56089765 Z M9.05882353,11.6785447 C4.05577571,11.6785447 0,15.7341388 0,20.7373682 C0,25.7405565 4.05577571,29.7961918 9.05882353,29.7961918 C14.0618759,29.7961918 18.1176471,25.7405565 18.1176471,20.7373682 C18.1176471,15.7341388 14.0618759,11.6785447 9.05882353,11.6785447 Z M9.05882353,13.3256035 C9.44828541,13.3256035 9.88235294,13.6818582 9.88235294,14.1491329 L9.88235294,15.0627359 C10.4702451,15.1750591 11.0298848,15.3930807 11.5036765,15.7189859 C12.1957315,16.1950271 12.7647059,16.9369447 12.7647059,17.8550153 C12.7689082,18.152011 12.61287,18.4282624 12.3563417,18.5779866 C12.0998135,18.7277108 11.7825395,18.7277108 11.5260112,18.5779866 C11.2694829,18.4282624 11.1134447,18.152011 11.1176471,17.8550153 C11.1176471,17.6312212 10.9667291,17.3379829 10.5772059,17.0700888 C10.1876826,16.8021535 9.60301465,16.6197212 9.05882353,16.6197212 C7.73647741,16.6197212 7,17.5465212 7,18.26678 C7,18.8533388 7.146006,19.0212565 7.51470588,19.2704565 C7.88340576,19.5196565 8.53767147,19.7245918 9.29044118,19.9395741 C10.0474694,20.1557918 10.8343846,20.3705682 11.5294118,20.8403094 C12.2244389,21.3100506 12.7647059,22.1603035 12.7647059,23.2079565 C12.7647059,24.7245126 11.5687781,26.0848741 9.88235294,26.4248682 L9.88235294,27.3256035 C9.88235294,27.7607153 9.44579671,28.1491329 9.05882353,28.1491329 C8.67185035,28.1491329 8.23529412,27.7607153 8.23529412,27.3256035 L8.23529412,26.4248682 C7.64740282,26.3125355 7.08776394,26.0816274 6.61397059,25.7557506 C5.92191312,25.2797506 5.35294118,24.5377918 5.35294118,23.6197212 C5.34873882,23.3227255 5.50477707,23.0464741 5.76130534,22.8967499 C6.0178336,22.7470257 6.33510757,22.7470257 6.59163584,22.8967499 C6.84816411,23.0464741 7.00420236,23.3227255 7,23.6197212 C7,23.8435153 7.15092,24.1238447 7.54044118,24.39178 C7.92996235,24.6597153 8.51462459,24.8550153 9.05882353,24.8550153 C10.3811828,24.8550153 11.1176471,23.9282153 11.1176471,23.2079565 C11.1176471,22.6213976 10.9716411,22.45348 10.6029412,22.20428 C10.2342413,21.95508 9.57997559,21.7373182 8.82720588,21.5222947 C8.07017771,21.3061182 7.28326241,21.1041682 6.58823529,20.6344271 C5.89320818,20.1646859 5.35294118,19.3144329 5.35294118,18.26678 C5.35294118,16.7503762 6.54913247,15.4029005 8.23529412,15.0627359 L8.23529412,14.1491329 C8.23529412,13.7420335 8.66936165,13.3256035 9.05882353,13.3256035 Z M18.0790441,14.9726624 C19.1466182,16.6378569 19.7647059,18.6124198 19.7647059,20.7373682 L31.7058824,20.7373682 C33.3027059,20.7373682 34.5882353,19.4518388 34.5882353,17.8550153 C34.5882353,16.2581918 33.3027059,14.9726624 31.7058824,14.9726624 L18.0790441,14.9726624 Z M19.6360294,22.3844271 C19.2934951,24.6084691 18.2689311,26.5985959 16.7794118,28.1491329 L31.7058824,28.1491329 C33.3027059,28.1491329 34.5882353,26.8636035 34.5882353,25.26678 C34.5882353,23.6699565 33.3027059,22.3844271 31.7058824,22.3844271 L19.6360294,22.3844271 Z" transform="translate(17.706 20.027)" stroke="none" class="main-fill"></path>
  </g></g><g class="base"><g fill="none" fill-rule="evenodd" stroke="none" class="main-stroke--darken">
    
    
    <path fill="none" d="M14.4117647,0.149132941 C12.8149412,0.149132941 11.5294118,1.43466235 11.5294118,3.03148588 C11.5294118,4.62830941 12.8149412,5.91383882 14.4117647,5.91383882 L31.7058824,5.91383882 C33.3027059,5.91383882 34.5882353,4.62830941 34.5882353,3.03148588 C34.5882353,1.43466235 33.3027059,0.149132941 31.7058824,0.149132941 L14.4117647,0.149132941 Z M14.4117647,7.56089765 C12.8582514,7.56089765 11.596557,8.77818612 11.5294118,10.3145741 C13.5670941,10.7954453 15.3767711,11.8655061 16.7794118,13.3256035 L31.7058824,13.3256035 C33.3027059,13.3256035 34.5882353,12.0400741 34.5882353,10.4432506 C34.5882353,8.84642706 33.3027059,7.56089765 31.7058824,7.56089765 L14.4117647,7.56089765 Z M9.05882353,11.6785447 C4.05577571,11.6785447 0,15.7341388 0,20.7373682 C0,25.7405565 4.05577571,29.7961918 9.05882353,29.7961918 C14.0618759,29.7961918 18.1176471,25.7405565 18.1176471,20.7373682 C18.1176471,15.7341388 14.0618759,11.6785447 9.05882353,11.6785447 Z M9.05882353,13.3256035 C9.44828541,13.3256035 9.88235294,13.6818582 9.88235294,14.1491329 L9.88235294,15.0627359 C10.4702451,15.1750591 11.0298848,15.3930807 11.5036765,15.7189859 C12.1957315,16.1950271 12.7647059,16.9369447 12.7647059,17.8550153 C12.7689082,18.152011 12.61287,18.4282624 12.3563417,18.5779866 C12.0998135,18.7277108 11.7825395,18.7277108 11.5260112,18.5779866 C11.2694829,18.4282624 11.1134447,18.152011 11.1176471,17.8550153 C11.1176471,17.6312212 10.9667291,17.3379829 10.5772059,17.0700888 C10.1876826,16.8021535 9.60301465,16.6197212 9.05882353,16.6197212 C7.73647741,16.6197212 7,17.5465212 7,18.26678 C7,18.8533388 7.146006,19.0212565 7.51470588,19.2704565 C7.88340576,19.5196565 8.53767147,19.7245918 9.29044118,19.9395741 C10.0474694,20.1557918 10.8343846,20.3705682 11.5294118,20.8403094 C12.2244389,21.3100506 12.7647059,22.1603035 12.7647059,23.2079565 C12.7647059,24.7245126 11.5687781,26.0848741 9.88235294,26.4248682 L9.88235294,27.3256035 C9.88235294,27.7607153 9.44579671,28.1491329 9.05882353,28.1491329 C8.67185035,28.1491329 8.23529412,27.7607153 8.23529412,27.3256035 L8.23529412,26.4248682 C7.64740282,26.3125355 7.08776394,26.0816274 6.61397059,25.7557506 C5.92191312,25.2797506 5.35294118,24.5377918 5.35294118,23.6197212 C5.34873882,23.3227255 5.50477707,23.0464741 5.76130534,22.8967499 C6.0178336,22.7470257 6.33510757,22.7470257 6.59163584,22.8967499 C6.84816411,23.0464741 7.00420236,23.3227255 7,23.6197212 C7,23.8435153 7.15092,24.1238447 7.54044118,24.39178 C7.92996235,24.6597153 8.51462459,24.8550153 9.05882353,24.8550153 C10.3811828,24.8550153 11.1176471,23.9282153 11.1176471,23.2079565 C11.1176471,22.6213976 10.9716411,22.45348 10.6029412,22.20428 C10.2342413,21.95508 9.57997559,21.7373182 8.82720588,21.5222947 C8.07017771,21.3061182 7.28326241,21.1041682 6.58823529,20.6344271 C5.89320818,20.1646859 5.35294118,19.3144329 5.35294118,18.26678 C5.35294118,16.7503762 6.54913247,15.4029005 8.23529412,15.0627359 L8.23529412,14.1491329 C8.23529412,13.7420335 8.66936165,13.3256035 9.05882353,13.3256035 Z M18.0790441,14.9726624 C19.1466182,16.6378569 19.7647059,18.6124198 19.7647059,20.7373682 L31.7058824,20.7373682 C33.3027059,20.7373682 34.5882353,19.4518388 34.5882353,17.8550153 C34.5882353,16.2581918 33.3027059,14.9726624 31.7058824,14.9726624 L18.0790441,14.9726624 Z M19.6360294,22.3844271 C19.2934951,24.6084691 18.2689311,26.5985959 16.7794118,28.1491329 L31.7058824,28.1491329 C33.3027059,28.1491329 34.5882353,26.8636035 34.5882353,25.26678 C34.5882353,23.6699565 33.3027059,22.3844271 31.7058824,22.3844271 L19.6360294,22.3844271 Z" transform="translate(17.706 20.027)" stroke="none" class="main-stroke--darken"></path>
  </g></g></g><style>
          .main-fill {fill: #374549;}
          .main-stroke {stroke: #374549;}
          .secondary-fill {fill: #212529;}
          .secondary-stroke {stroke: #212529;}

          .main-fill--darken {fill: #161c1d;}
          .main-stroke--darken {stroke: #161c1d;}
          .secondary-fill--darken {fill: #000000;}
          .secondary-stroke--darken {stroke: #000000;}

          .main-fill--darkener {fill: #000000;}
          .main-stroke--darkener {stroke: #000000;}
          .secondary-fill--darkener {fill: #000000;}
          .secondary-stroke--darkener {stroke: #000000;}
        </style></svg>